<svg xmlns="http://www.w3.org/2000/svg" xmlns:xlink="http://www.w3.org/1999/xlink" width="60" height="60" version="1.1" viewBox="0 0 60 60"><title>institutional_partners2 + Imported-Layers</title><desc>Created with Sketch.</desc><defs><linearGradient id="linearGradient-1" x1="0%" x2="50%" y1="-37.589%" y2="100%"><stop offset="0%" stop-color="#FBDA61"/><stop offset="100%" stop-color="#F76B1C"/></linearGradient></defs><g id="Page-1" fill="none" fill-rule="evenodd" stroke="none" stroke-width="1"><g id="institutional_partners2-+-Imported-Layers"><g id="institutional_partners2" fill="url(#linearGradient-1)"><g id="Page-1"><g id="About---Desktop"><g id="Oval-83-Copy-2-+-Group"><g id="Oval-83-Copy-2-+-Imported-Layers-+-Imported-Layers"><g id="Oval-83-Copy-2-+-Imported-Layers"><circle id="Oval-83-Copy-2" cx="30" cy="30" r="30"/></g></g></g></g></g></g><path id="Imported-Layers" fill="#FFF" d="M36.3886674,14.0606403 C40.5905246,13.3716228 44.1463491,14.6308647 46.8011144,18.0583238 C48.0803047,19.709822 48.650764,21.6638395 48.7919458,23.7340811 C49.1318051,28.7187835 47.5792459,33.1413227 44.7749214,37.1821473 C41.833736,41.4201631 38.0669764,44.7905731 33.8192638,47.6437327 C32.6494211,48.4294855 31.4212009,49.1286018 30.20612,49.8439292 C30.0673191,49.9256049 29.8005639,49.9247191 29.6585884,49.844815 C23.6063762,46.4401224 18.3119251,42.1742909 14.4729432,36.2710461 C12.1568909,32.7094687 10.9078594,28.8151645 11.0053022,24.5418917 C11.0814046,21.2059414 12.1810532,18.3065402 14.844725,16.1478017 C18.8010792,12.9416291 24.8383884,13.1174712 28.3342481,16.5726575 C28.9348662,17.166357 29.41238,17.8858479 29.9785183,18.5865587 C30.0021515,18.5560853 33.6448368,14.5105657 36.3886674,14.0606403 L36.3886674,14.0606403 L36.3886674,14.0606403 Z"/></g></g></svg>