<svg xmlns="http://www.w3.org/2000/svg" xmlns:xlink="http://www.w3.org/1999/xlink" width="54" height="55" version="1.1" viewBox="0 0 54 55"><title>Group</title><desc>Created with Sketch.</desc><defs><linearGradient id="linearGradient-1" x1="50%" x2="50%" y1="0%" y2="100%"><stop offset="0%" stop-color="#FACC6A"/><stop offset="100%" stop-color="#F76B1C"/></linearGradient></defs><g id="Page-1" fill="none" fill-rule="evenodd" stroke="none" stroke-width="1"><g id="Home---Desktop-Copy-2" stroke="#000" transform="translate(-130.000000, -556.000000)"><g id="Jupyter-Notebook-+-Group" transform="translate(130.000000, 557.000000)"><g id="Group"><path id="Rectangle-7-Copy-2" fill="#FFF" stroke-width="1.674" d="M7.69546907,20.6264386 L35.5868513,30.4940256 L45.8611763,57.9398674 L16.2889614,49.5505737 L7.69546907,20.6264386 Z" transform="translate(26.778323, 39.283153) rotate(-47.000000) translate(-26.778323, -39.283153)"/><path id="Rectangle-7-Copy" fill="#FFF" stroke-width="1.674" d="M7.69546907,15.543785 L35.5868513,25.4113719 L45.8611763,52.8572137 L16.2889614,44.46792 L7.69546907,15.543785 Z" transform="translate(26.778323, 34.200499) rotate(-47.000000) translate(-26.778323, -34.200499)"/><path id="Rectangle-7" fill="#FFF" stroke-width="1.674" d="M7.69546907,10.1338471 L35.5868513,20.001434 L45.8611763,47.4472758 L16.2889614,39.0579821 L7.69546907,10.1338471 Z" transform="translate(26.778323, 28.790561) rotate(-47.000000) translate(-26.778323, -28.790561)"/><path id="Path-227" fill="url(#linearGradient-1)" stroke-width="1.256" d="M34.346993,35.5051932 L38.9443161,30.5350325 L38.9443161,0.15330035 L30.5435715,0.15330035 L30.5435715,30.5350335 L34.346993,35.5051932 Z" transform="translate(34.743944, 17.829247) rotate(25.000000) translate(-34.743944, -17.829247)"/></g></g></g></g></svg>