<svg xmlns="http://www.w3.org/2000/svg" xmlns:xlink="http://www.w3.org/1999/xlink" width="402" height="61" version="1.1" viewBox="0 0 402 61"><title>Jupyter Notebook + Group</title><desc>Created with Sketch.</desc><defs><rect id="path-1" width="573.702" height="367.953" x="0" y="0"/><path id="path-3" d="M6,0 L621,0 L621,392 L0,392 L6,0 Z"/><linearGradient id="linearGradient-5" x1="50%" x2="50%" y1="0%" y2="100%"><stop offset="0%" stop-color="#FACC6A"/><stop offset="100%" stop-color="#F76B1C"/></linearGradient></defs><g id="Page-1" fill="none" fill-rule="evenodd" stroke="none" stroke-width="1"><g id="Home---Desktop-Copy-2" transform="translate(-130.000000, -555.000000)"><g id="Line-+-Screen-Shot-2015-07-16-at-5.00.54-PM-+-Rectangle-5-+-Rectangle-6-+-ScreenShot-Lorenz" transform="translate(472.000000, 485.000000)"><g id="Line-+-Screen-Shot-2015-07-16-at-5.00.54-PM-+-Rectangle-5-+-Rectangle-6" transform="translate(0.000000, 23.000000)"><g id="Screen-Shot-2015-07-16-at-5.00.54-PM-+-Rectangle-5-+-Rectangle-6" transform="translate(0.297626, 0.000000)"><mask id="mask-2" fill="#fff"><use xlink:href="#path-1"/></mask><use id="Mask" xlink:href="#path-1"/></g></g><g id="ScreenShot-Lorenz" transform="translate(3.000000, 0.000000)"><mask id="mask-4" fill="#fff"><use xlink:href="#path-3"/></mask><use id="Mask" fill="#D8D8D8" fill-opacity="0" xlink:href="#path-3"/></g></g><g id="Jupyter-Notebook-+-Group" transform="translate(130.000000, 556.000000)"><text id="Jupyter-Notebook" fill="#766969" font-family="Helvetica Neue" font-size="41" font-weight="260"><tspan x="71.188" y="47.459">Jupyter Notebook</tspan></text><g id="Group" stroke="#000"><path id="Rectangle-7-Copy-2" fill="#FFF" stroke-width="1.674" d="M7.69546907,21.6264386 L35.5868513,31.4940256 L45.8611763,58.9398674 L16.2889614,50.5505737 L7.69546907,21.6264386 Z" transform="translate(26.778323, 40.283153) rotate(-47.000000) translate(-26.778323, -40.283153)"/><path id="Rectangle-7-Copy" fill="#FFF" stroke-width="1.674" d="M7.69546907,16.543785 L35.5868513,26.4113719 L45.8611763,53.8572137 L16.2889614,45.46792 L7.69546907,16.543785 Z" transform="translate(26.778323, 35.200499) rotate(-47.000000) translate(-26.778323, -35.200499)"/><path id="Rectangle-7" fill="#FFF" stroke-width="1.674" d="M7.69546907,11.1338471 L35.5868513,21.001434 L45.8611763,48.4472758 L16.2889614,40.0579821 L7.69546907,11.1338471 Z" transform="translate(26.778323, 29.790561) rotate(-47.000000) translate(-26.778323, -29.790561)"/><path id="Path-227" fill="url(#linearGradient-5)" stroke-width="1.256" d="M34.346993,35.5051932 L38.9443161,30.5350325 L38.9443161,0.15330035 L30.5435715,0.15330035 L30.5435715,30.5350335 L34.346993,35.5051932 Z" transform="translate(34.743944, 17.829247) rotate(25.000000) translate(-34.743944, -17.829247)"/></g></g></g></g></svg>